<?xml version="1.0" encoding="UTF-8"?>
<svg id="uuid-041eda18-6483-4d05-8ca4-b0ded04f10f3" data-name="Layer_1" xmlns="http://www.w3.org/2000/svg" viewBox="0 0 243.6 66.4">
  <g>
    <path d="M17.64,0h6.3C34.37,0,42.84,8.47,42.84,18.9h0c0,10.43-8.47,18.9-18.9,18.9h-6.3V0h0Z" style="fill: #ffe224;"/>
    <path d="M23.94,0h-5.52v25.2h23.34c.7-1.97,1.08-4.09,1.08-6.3h0C42.84,8.46,34.38,0,23.94,0Z" style="fill: #0e94d8;"/>
    <path d="M6.5,0h12.4v25.2H0V6.5C0,2.91,2.91,0,6.5,0Z" style="fill: #fd5c17;"/>
    <path d="M0,37.8h18.9v16.23c0,4.95-4.02,8.97-8.97,8.97H1.67c-.92,0-1.67-.75-1.67-1.67v-23.53h0Z" style="fill: #fd5c17;"/>
    <rect y="25.2" width="18.9" height="12.6" style="fill: #0e94d8;"/>
    <path d="M6.11,0h3.34v25.2H0V6.11C0,2.74,2.74,0,6.11,0Z" style="fill: #ffe224;"/>
  </g>
  <g>
    <path d="M72.11,14.6v.38c0,.11,0,.22-.03.32-.1.83-.38,1.59-.82,2.28-.44.69-.99,1.28-1.65,1.77-.66.48-1.38.83-2.18,1.05-.8.22-1.61.26-2.44.12.02.24.03.48.03.71v1.01c0,.44,0,1.03.01,1.78,0,.74.03,1.75.06,3.01v.03s-.03,0-.04.01-.02.01-.04.01c-.24.07-.55.12-.92.14-.37.03-.76.04-1.17.05-.41,0-.81,0-1.21-.01-.4-.02-.74-.04-1.04-.08-.05-1.26-.08-2.63-.08-4.11v-4.55c0-1.56,0-3.12-.01-4.7,0-1.57-.04-3.08-.09-4.52.71-.19,1.48-.33,2.32-.42.84-.09,1.68-.09,2.52-.03.84.07,1.66.22,2.45.45.8.23,1.5.58,2.12,1.04.61.46,1.12,1.03,1.52,1.73.4.69.62,1.53.67,2.52ZM67.57,13.51c-.43-.35-.93-.57-1.51-.66-.57-.09-1.13-.07-1.69.06-.04,0-.06,0-.08.03.02.31.02.64.01.99,0,.35,0,.69,0,1.04,0,.35.03.68.05,1,.03.32.08.61.17.87h.08c.28-.02.57-.03.88-.04s.62-.03.92-.06.6-.1.88-.19c.29-.09.53-.25.74-.45.14-.19.24-.41.3-.65.06-.24.07-.48.03-.73-.04-.24-.13-.47-.26-.67-.13-.21-.31-.38-.53-.52Z" style="fill: #fff;"/>
    <path d="M83.92,9.02l.7,18.17c-.29.05-.61.09-.95.1s-.67.03-.99.03h-.93c-.3,0-.56,0-.77.03h-.03c-.09-.57-.14-1.16-.17-1.78-.03-.61-.04-1.22-.05-1.83,0-.61-.02-1.21-.04-1.82-.02-.61-.06-1.19-.13-1.74l-.03-.03c-.5-.09-1-.13-1.51-.13s-1,.06-1.51.18c-.05.61-.07,1.2-.06,1.79,0,.59.02,1.18.04,1.77.02.59.02,1.16.01,1.73,0,.56-.06,1.12-.14,1.67-.21.12-.48.18-.83.18s-.69-.02-1.04-.05-.67-.06-.97-.08c-.3-.02-.53.02-.69.1-.03-.48-.07-1.15-.12-1.99-.04-.84-.08-1.78-.12-2.83s-.06-2.16-.09-3.34c-.03-1.18-.05-2.36-.06-3.54-.02-1.19-.02-2.33-.01-3.43s.02-2.09.04-2.97v-.03h.08c.26.05.53.07.82.05s.57-.03.86-.05c.29-.02.57-.03.84-.03s.54.04.78.1c.16,1.19.23,2.35.23,3.48s.1,2.24.31,3.35h.03c.43.1.9.13,1.4.09.5-.04.97-.08,1.4-.12h.03c.1-1.19.16-2.31.17-3.35,0-1.04-.01-2.18-.06-3.43.21-.07.46-.13.77-.18s.62-.09.95-.12c.33-.03.65-.03.97-.03.32,0,.61.02.87.04Z" style="fill: #fff;"/>
    <path d="M90.54,9.1h.62v.1c0,1.49-.02,2.98-.06,4.49-.04,1.51-.08,3.02-.1,4.53-.03,1.51-.03,3.02-.01,4.53.02,1.51.07,2.99.16,4.46-.14.14-.43.22-.87.25-.44.03-.92.03-1.43.01-.51-.02-1-.04-1.47-.06-.47-.03-.79-.01-.96.04.12-1.56.17-3.12.16-4.7-.02-1.57-.05-3.14-.09-4.69-.04-1.55-.07-3.08-.08-4.59,0-1.51.06-3,.22-4.45v-.05c.09-.02.26-.01.51.01.25.03.44.04.56.04.31.02.67.04,1.08.06s1,.03,1.78.01Z" style="fill: #fff;"/>
    <path d="M104.01,24.98c.03.62.05,1.09.05,1.41s-.02.55-.06.7c-.04.15-.12.23-.22.23-.1,0-.25.01-.44.01-.19-.02-.44-.02-.74,0-.3.02-.81.03-1.53.05s-1.7.03-2.96.03-2.93-.02-5.02-.05v-.47c.05-1.3.09-2.47.13-3.52s.06-2.02.06-2.93c0-.91.01-1.79.01-2.63s0-1.71-.03-2.6c-.02-.88-.04-1.82-.05-2.82-.02-.99-.03-2.1-.05-3.31.17-.07.44-.13.8-.17.36-.04.75-.06,1.17-.06s.82.03,1.22.08c.4.05.72.13.96.23-.04,1.12-.05,2.28-.04,3.46,0,1.19.02,2.38.04,3.57.02,1.19.03,2.38.04,3.57s0,2.33-.01,3.44v.03c.12-.03.35-.05.69-.04s.73.02,1.18.04c.45.02.93.04,1.44.06.51.03.99.05,1.45.06.46.02.86.03,1.22.04.35,0,.6,0,.74-.01,0,.19,0,.38-.03.57-.02.17-.03.35-.04.53,0,.18,0,.34.01.48Z" style="fill: #fff;"/>
    <path d="M109.25,9.1h.62v.1c0,1.49-.02,2.98-.06,4.49-.04,1.51-.08,3.02-.1,4.53-.03,1.51-.03,3.02-.01,4.53.02,1.51.07,2.99.16,4.46-.14.14-.43.22-.87.25-.44.03-.92.03-1.43.01-.51-.02-1-.04-1.47-.06-.47-.03-.79-.01-.96.04.12-1.56.17-3.12.16-4.7-.02-1.57-.05-3.14-.09-4.69-.04-1.55-.07-3.08-.08-4.59,0-1.51.06-3,.22-4.45v-.05c.09-.02.26-.01.51.01.25.03.44.04.56.04.31.02.67.04,1.08.06s1,.03,1.78.01Z" style="fill: #fff;"/>
    <path d="M123.42,14.6v.38c0,.11,0,.22-.03.32-.1.83-.38,1.59-.82,2.28-.44.69-.99,1.28-1.65,1.77-.66.48-1.38.83-2.18,1.05-.8.22-1.61.26-2.44.12.02.24.03.48.03.71v1.01c0,.44,0,1.03.01,1.78,0,.74.03,1.75.06,3.01v.03s-.03,0-.04.01-.02.01-.04.01c-.24.07-.55.12-.92.14-.37.03-.76.04-1.17.05-.41,0-.81,0-1.21-.01-.4-.02-.74-.04-1.04-.08-.05-1.26-.08-2.63-.08-4.11v-4.55c0-1.56,0-3.12-.01-4.7,0-1.57-.04-3.08-.09-4.52.71-.19,1.48-.33,2.32-.42.84-.09,1.68-.09,2.52-.03.84.07,1.66.22,2.45.45.8.23,1.5.58,2.12,1.04.61.46,1.12,1.03,1.52,1.73.4.69.62,1.53.67,2.52ZM118.88,13.51c-.43-.35-.93-.57-1.51-.66-.57-.09-1.13-.07-1.69.06-.04,0-.06,0-.08.03.02.31.02.64.01.99,0,.35,0,.69,0,1.04,0,.35.03.68.05,1,.03.32.08.61.17.87h.08c.28-.02.57-.03.88-.04s.62-.03.92-.06.6-.1.88-.19c.29-.09.53-.25.74-.45.14-.19.24-.41.3-.65.06-.24.07-.48.03-.73-.04-.24-.13-.47-.26-.67-.13-.21-.31-.38-.53-.52Z" style="fill: #fff;"/>
    <path d="M136.32,14.6v.38c0,.11,0,.22-.03.32-.1.83-.38,1.59-.82,2.28-.44.69-.99,1.28-1.65,1.77-.66.48-1.38.83-2.18,1.05-.8.22-1.61.26-2.44.12.02.24.03.48.03.71v1.01c0,.44,0,1.03.01,1.78,0,.74.03,1.75.06,3.01v.03s-.03,0-.04.01-.02.01-.04.01c-.24.07-.55.12-.92.14-.37.03-.76.04-1.17.05-.41,0-.81,0-1.21-.01-.4-.02-.74-.04-1.04-.08-.05-1.26-.08-2.63-.08-4.11v-4.55c0-1.56,0-3.12-.01-4.7,0-1.57-.04-3.08-.09-4.52.71-.19,1.48-.33,2.32-.42.84-.09,1.68-.09,2.52-.03.84.07,1.66.22,2.45.45.8.23,1.5.58,2.12,1.04.61.46,1.12,1.03,1.52,1.73.4.69.62,1.53.67,2.52ZM131.78,13.51c-.43-.35-.93-.57-1.51-.66-.57-.09-1.13-.07-1.69.06-.04,0-.06,0-.08.03.02.31.02.64.01.99,0,.35,0,.69,0,1.04,0,.35.03.68.05,1,.03.32.08.61.17.87h.08c.28-.02.57-.03.88-.04s.62-.03.92-.06.6-.1.88-.19c.29-.09.53-.25.74-.45.14-.19.24-.41.3-.65.06-.24.07-.48.03-.73-.04-.24-.13-.47-.26-.67-.13-.21-.31-.38-.53-.52Z" style="fill: #fff;"/>
    <path d="M141.8,9.1h.62v.1c0,1.49-.02,2.98-.06,4.49-.04,1.51-.08,3.02-.1,4.53-.03,1.51-.03,3.02-.01,4.53.02,1.51.07,2.99.16,4.46-.14.14-.43.22-.87.25-.44.03-.92.03-1.43.01-.51-.02-1-.04-1.47-.06-.47-.03-.79-.01-.96.04.12-1.56.17-3.12.16-4.7-.02-1.57-.05-3.14-.09-4.69-.04-1.55-.07-3.08-.08-4.59,0-1.51.06-3,.22-4.45v-.05c.09-.02.26-.01.51.01.25.03.44.04.56.04.31.02.67.04,1.08.06s1,.03,1.78.01Z" style="fill: #fff;"/>
    <path d="M154.41,27.48c-.35,0-.74-.02-1.19-.06-.45-.04-.85-.06-1.19-.06-.57-1.28-1.14-2.52-1.7-3.72-.56-1.2-1.04-2.36-1.44-3.46l-.26-.78c-.07-.19-.13-.37-.19-.53-.06-.16-.11-.25-.14-.25-.02,0-.04.21-.06.62-.03.42-.05.94-.06,1.58-.02.64-.03,1.35-.04,2.13,0,.78-.01,1.53-.01,2.26v1.16c0,.37,0,.71.03,1-.19.05-.38.09-.57.1-.19.02-.38.03-.57.03-.42,0-.83-.03-1.26-.08-.42-.05-.83-.08-1.23-.08v-1.82c0-1.64-.01-3.21-.04-4.7-.03-1.49-.04-3.04-.04-4.67,0-1.19.02-2.37.05-3.54s.1-2.31.18-3.41c.17-.03.36-.06.56-.08.2-.02.4-.03.61-.03.1,0,.28,0,.52.01.24,0,.48.03.73.05.24.03.45.06.64.09.18.04.27.07.27.1.12.31.23.57.34.78.1.21.2.41.3.6.1.19.2.4.31.64.11.23.25.53.4.9.03.09.11.25.23.49.12.24.26.52.42.84s.32.66.49,1.01c.17.35.33.67.48.96.15.29.27.53.38.73.1.2.16.3.18.3.05-.03.09-.21.13-.52.03-.31.05-.61.05-.91,0-.69-.01-1.34-.04-1.93-.03-.6-.04-1.21-.04-1.83,0-.36,0-.73.01-1.1,0-.37.02-.77.04-1.21.59-.1,1.21-.16,1.87-.16s1.21.05,1.71.16v8.36c.02.73.03,1.46.03,2.21v2.23c0,.5,0,.99-.01,1.45,0,.47-.01.94-.01,1.43,0,.35,0,.69.01,1.04,0,.35.01.69.01,1.04v.52s-.11.04-.23.08-.33.05-.62.05Z" style="fill: #fff;"/>
    <path d="M168.35,23.82v.05c.03.55.04,1.13.03,1.73-.02.6-.1,1.15-.23,1.67-1.76-.02-3.56,0-5.39.06-1.83.06-3.58.02-5.26-.12,0-1.51-.02-3-.05-4.48-.04-1.48-.06-2.95-.08-4.43-.02-1.47-.02-2.94,0-4.41.02-1.47.07-2.95.16-4.44.67-.03,1.41-.06,2.19-.09.79-.03,1.58-.05,2.37-.06.8-.02,1.57-.03,2.31-.05.74-.02,1.4-.03,1.97-.03s1.03,0,1.38.03c.35.02.52.03.52.05.09.61.11,1.22.06,1.84-.04.62-.06,1.24-.06,1.84v.03c-.55.12-1.11.19-1.67.22s-1.13.03-1.7.03c-.57,0-1.14-.01-1.71-.01s-1.14.03-1.71.08h-.08l-.03.03c.02.5,0,1.02-.06,1.54-.06.53-.03,1.02.09,1.49l.03.03c.52.04,1.05.05,1.58.05s1.07,0,1.61.03v.03c.09.59.11,1.18.08,1.76-.04.59-.04,1.2-.03,1.84-.26.07-.55.11-.88.12-.33,0-.64.01-.95.01s-.58,0-.82.03c-.24.02-.41.06-.49.13-.09.5-.12,1.06-.09,1.69s.06,1.14.09,1.56l.03.03c1.14,0,2.27.03,3.37.09,1.11.06,2.25.07,3.43.04Z" style="fill: #fff;"/>
    <path d="M186.02,15.04h-.03c-.61.1-1.25.17-1.95.19-.69.03-1.34-.05-1.95-.22.1-.47,0-.86-.29-1.17s-.65-.51-1.06-.6c-.42-.09-.82-.04-1.21.13-.39.17-.62.5-.69.99-.04.12-.05.24-.04.35,0,.11.02.23.04.35.14.42.36.69.67.83.31.14.65.23,1.01.29.92.1,1.77.4,2.56.88.79.48,1.43,1.1,1.93,1.84.31.4.55.83.7,1.28.16.46.25.93.27,1.41s0,.97-.1,1.47c-.1.49-.25.96-.45,1.41-.21.54-.48,1-.83,1.38-.35.38-.74.69-1.18.93-.44.24-.92.42-1.43.53-.51.11-1.03.16-1.57.14-.76-.02-1.52-.15-2.27-.4-.75-.25-1.42-.6-2.01-1.05-.59-.45-1.06-1-1.4-1.65s-.49-1.39-.44-2.22v-.16c.61-.09,1.27-.11,2-.06.73.04,1.38.06,1.97.04.03.55.26.97.66,1.25.41.28.84.41,1.3.4.46,0,.86-.16,1.19-.45.34-.29.45-.74.35-1.35-.05-.42-.21-.75-.47-1-.26-.25-.57-.45-.92-.61s-.74-.27-1.15-.35c-.42-.08-.8-.15-1.17-.22-.35-.07-.67-.18-.96-.34-.29-.16-.56-.34-.8-.54-.8-.76-1.31-1.6-1.54-2.52-.23-.92-.25-1.81-.04-2.67.21-.86.6-1.65,1.18-2.36.58-.71,1.28-1.24,2.12-1.58.42-.17.87-.29,1.38-.35.5-.06,1.01-.08,1.52-.05.51.03,1.01.1,1.51.22.49.12.95.28,1.36.47.83.43,1.47,1.07,1.92,1.92.45.85.55,1.92.31,3.22Z" style="fill: #fff;"/>
    <path d="M191.6,13.28s-.06.09-.09.17-.05.13-.06.17c-.04.05-.06.35-.09.91s-.05,1.21-.06,1.97c-.02.76-.03,1.55-.03,2.37s.03,1.54.08,2.14c.05.5.19.99.4,1.47s.58.78,1.08.92c.38.03.74-.02,1.08-.17.34-.15.59-.39.77-.74.19-.4.27-.82.25-1.26-.03-.44,0-.88.09-1.31.24.03.51.04.82.03.3-.02.61-.03.92-.03s.62,0,.92.03c.3.02.58.06.82.13.29.9.37,1.8.23,2.69-.14.89-.44,1.69-.91,2.4-.47.71-1.08,1.29-1.83,1.75-.75.46-1.6.7-2.56.71-.62.09-1.26.09-1.92.01-.66-.08-1.27-.25-1.84-.52-.57-.27-1.05-.64-1.44-1.13s-.62-1.09-.69-1.82c-.04-.62-.06-1.27-.08-1.95-.02-.67-.03-1.43-.04-2.27s0-1.79,0-2.85c0-1.06.02-2.3.04-3.7-.03-.29-.02-.59.04-.9.06-.3.14-.58.25-.84.16-.45.35-.87.58-1.25.23-.38.51-.72.84-1.01.19-.14.4-.26.62-.35.22-.09.46-.18.7-.25.8-.26,1.58-.36,2.36-.31.78.05,1.51.23,2.19.53.68.3,1.3.71,1.86,1.21.55.5.99,1.08,1.32,1.73.33.65.53,1.35.6,2.12.07.76-.04,1.54-.31,2.34-.64.14-1.27.19-1.88.14-.61-.04-1.25-.12-1.91-.25-.05-.33-.08-.7-.09-1.12,0-.42-.06-.8-.14-1.15-.09-.35-.25-.64-.48-.87-.23-.22-.6-.33-1.1-.31-.22.03-.46.08-.71.13-.25.05-.45.15-.58.29Z" style="fill: #fff;"/>
    <path d="M212.65,27.27h.03c-.61,0-1.28.02-2.02.06-.74.04-1.51.04-2.28-.01h-.03c-.17-.4-.39-.87-.65-1.43-.26-.55-.54-1.13-.86-1.74-.31-.61-.65-1.2-1.01-1.79-.36-.59-.73-1.11-1.09-1.56l-.05-.08c-.05.4-.08.89-.08,1.47s.01,1.18.04,1.79c.03.61.06,1.2.09,1.75.03.55.06,1,.08,1.32-.29.12-.68.2-1.15.23-.48.03-.95.06-1.41.06-.47,0-.89,0-1.26-.01-.37-.02-.6-.02-.69,0,.03,0,.06-.24.08-.71.02-.48.03-1.1.03-1.88v-2.69c0-1.01,0-2.06-.01-3.14,0-1.08-.03-2.15-.05-3.22-.03-1.06-.05-2.04-.06-2.93-.02-.89-.04-1.65-.06-2.28-.03-.63-.06-1.06-.09-1.28.97-.14,2.03-.27,3.19-.39s2.37-.11,3.63.03c1.02.05,1.94.35,2.75.88.81.54,1.44,1.2,1.89,2,.45.8.69,1.67.71,2.63.03.96-.23,1.89-.77,2.79-.33.62-.77,1.14-1.31,1.56-.55.42-1.23.65-2.06.7h-.13v.03c.36.64.76,1.28,1.19,1.91.43.63.86,1.27,1.27,1.91.42.64.81,1.29,1.19,1.96.38.67.7,1.35.96,2.06ZM203.91,12.84c.02.23.03.48.04.77s.01.58.01.87,0,.58.01.86.03.51.06.7h.03c.4.03.83.06,1.3.08.47.02.91,0,1.32-.08.33-.07.58-.24.77-.51.18-.27.29-.56.32-.88.03-.32,0-.64-.1-.96-.1-.32-.28-.57-.52-.77-.38-.35-.87-.51-1.45-.48-.59.03-1.19.16-1.79.4Z" style="fill: #fff;"/>
    <path d="M217.84,9.1h.62v.1c0,1.49-.02,2.98-.06,4.49-.04,1.51-.08,3.02-.1,4.53-.03,1.51-.03,3.02-.01,4.53.02,1.51.07,2.99.16,4.46-.14.14-.43.22-.87.25-.44.03-.92.03-1.43.01-.51-.02-1-.04-1.47-.06-.47-.03-.79-.01-.96.04.12-1.56.17-3.12.16-4.7-.02-1.57-.05-3.14-.09-4.69-.04-1.55-.07-3.08-.08-4.59,0-1.51.06-3,.22-4.45v-.05c.09-.02.26-.01.51.01.25.03.44.04.56.04.31.02.67.04,1.08.06s1,.03,1.78.01Z" style="fill: #fff;"/>
    <path d="M232.01,14.6v.38c0,.11,0,.22-.03.32-.1.83-.38,1.59-.82,2.28-.44.69-.99,1.28-1.65,1.77-.66.48-1.38.83-2.18,1.05-.8.22-1.61.26-2.44.12.02.24.03.48.03.71v1.01c0,.44,0,1.03.01,1.78,0,.74.03,1.75.06,3.01v.03s-.03,0-.04.01-.02.01-.04.01c-.24.07-.55.12-.92.14-.37.03-.76.04-1.17.05-.41,0-.81,0-1.21-.01-.4-.02-.74-.04-1.04-.08-.05-1.26-.08-2.63-.08-4.11v-4.55c0-1.56,0-3.12-.01-4.7,0-1.57-.04-3.08-.09-4.52.71-.19,1.48-.33,2.32-.42.84-.09,1.68-.09,2.52-.03.84.07,1.66.22,2.45.45.8.23,1.5.58,2.12,1.04.61.46,1.12,1.03,1.52,1.73.4.69.62,1.53.67,2.52ZM227.47,13.51c-.43-.35-.93-.57-1.51-.66-.57-.09-1.13-.07-1.69.06-.04,0-.06,0-.08.03.02.31.02.64.01.99,0,.35,0,.69,0,1.04,0,.35.03.68.05,1,.03.32.08.61.17.87h.08c.28-.02.57-.03.88-.04s.62-.03.92-.06.6-.1.88-.19c.29-.09.53-.25.74-.45.14-.19.24-.41.3-.65.06-.24.07-.48.03-.73-.04-.24-.13-.47-.26-.67-.13-.21-.31-.38-.53-.52Z" style="fill: #fff;"/>
    <path d="M243.56,9.31c.03.57.05,1.23.04,1.97s-.06,1.43-.14,2.05c-.33-.07-.74-.1-1.22-.08-.48.02-1.13.04-1.95.08h-.08s0,.03-.01.04-.01.02-.01.04c-.02.09-.03.22-.04.4,0,.18-.01.47-.01.86s0,.9.01,1.53c0,.63.02,1.45.04,2.44.02,1,.03,2.19.05,3.58.02,1.39.04,3.03.08,4.92v.05c-.31.05-.65.08-1.02.09-.37,0-.74.01-1.12.01h-1.1c-.36,0-.7.03-1.01.08-.02-.07-.02-.38,0-.93.02-.55.03-1.38.04-2.48,0-1.1,0-2.5-.03-4.22-.03-1.71-.09-3.78-.19-6.2l-.03-.03c-.21-.1-.47-.17-.78-.19s-.62-.04-.93-.05c-.31,0-.6-.01-.86-.01s-.44-.02-.55-.05c-.03-.07-.06-.24-.09-.52-.03-.28-.04-.61-.05-1,0-.39-.01-.81-.01-1.26s.02-.88.05-1.3c0-.02,0-.03-.01-.03s-.01,0-.01-.03c1.76-.02,3.59-.03,5.46-.04s3.71.08,5.49.27Z" style="fill: #fff;"/>
  </g>
  <g>
    <path d="M76.88,32.27c.05.83.07,1.79.06,2.87-.01,1.08-.08,2.08-.21,2.99-.48-.1-1.07-.14-1.78-.11-.71.03-1.65.06-2.83.11h-.11s0,.04-.02.06c-.01.01-.02.03-.02.06-.03.13-.04.32-.06.59-.01.26-.02.68-.02,1.25s0,1.31.02,2.23c.01.92.03,2.1.06,3.55.02,1.45.05,3.19.08,5.21.02,2.03.06,4.42.11,7.16v.08c-.45.08-.95.12-1.49.13-.54.01-1.08.02-1.62.02h-1.61c-.53,0-1.02.04-1.47.11-.03-.1-.03-.55,0-1.36.02-.81.04-2.01.06-3.61.01-1.6,0-3.65-.04-6.14-.04-2.49-.13-5.5-.28-9.03l-.04-.04c-.3-.15-.68-.25-1.13-.28-.45-.04-.91-.06-1.36-.08-.45-.01-.87-.02-1.25-.02s-.64-.02-.79-.08c-.05-.1-.09-.35-.13-.76-.04-.4-.06-.89-.08-1.46s-.02-1.18-.02-1.83.02-1.28.08-1.89c0-.02,0-.04-.02-.04-.01,0-.02-.01-.02-.04,2.57-.02,5.22-.04,7.96-.06,2.73-.01,5.4.12,7.99.4Z" style="fill: #fff;"/>
    <path d="M96.79,58.42h.04c-.88,0-1.86.03-2.95.09-1.08.06-2.19.06-3.33-.02h-.04c-.25-.58-.57-1.27-.94-2.08-.38-.81-.79-1.65-1.25-2.53-.45-.88-.94-1.75-1.47-2.61-.53-.86-1.06-1.61-1.59-2.27l-.08-.11c-.08.58-.11,1.29-.11,2.14s.02,1.71.06,2.61c.04.89.08,1.75.13,2.55.05.81.09,1.45.11,1.93-.43.18-.99.29-1.68.34-.69.05-1.38.08-2.06.09-.68.01-1.29,0-1.83-.02-.54-.02-.88-.02-1,0,.05,0,.09-.35.11-1.04.02-.69.04-1.61.04-2.74v-3.91c0-1.47,0-3-.02-4.57-.01-1.57-.04-3.14-.08-4.69-.04-1.55-.07-2.97-.09-4.27-.03-1.3-.06-2.41-.09-3.33-.04-.92-.08-1.54-.13-1.87,1.41-.2,2.96-.39,4.65-.57,1.69-.18,3.45-.16,5.29.04,1.49.08,2.82.5,4.01,1.29,1.18.78,2.1,1.75,2.76,2.91.65,1.16,1,2.44,1.04,3.84.04,1.4-.33,2.75-1.11,4.06-.48.91-1.11,1.66-1.91,2.27-.79.6-1.79.94-3,1.02h-.19v.04c.53.93,1.11,1.86,1.74,2.78.63.92,1.25,1.85,1.85,2.78s1.18,1.88,1.74,2.85c.55.97,1.02,1.97,1.4,3ZM84.06,37.41c.02.33.04.7.06,1.11.01.42.02.84.02,1.27s0,.84.02,1.25c.01.4.04.74.09,1.02h.04c.58.05,1.21.09,1.89.11.68.03,1.32-.01,1.93-.11.48-.1.85-.35,1.11-.74s.42-.82.47-1.29c.05-.47,0-.93-.15-1.4s-.4-.84-.76-1.12c-.55-.5-1.26-.74-2.12-.7-.86.04-1.73.23-2.61.59Z" style="fill: #fff;"/>
    <path d="M110.55,45.27l2.83,13.23v.04c-.76.15-1.59.21-2.49.17-.91-.04-1.76-.15-2.57-.32h-.04c-.15-.4-.3-.88-.43-1.44-.14-.55-.28-1.12-.42-1.7-.14-.58-.28-1.13-.43-1.66-.15-.53-.32-.98-.49-1.36-.33-.05-.58-.08-.76-.08h-.47c-.14,0-.29,0-.45.02-.16.01-.38.02-.66.02-.18.4-.32.88-.43,1.42-.11.54-.23,1.11-.34,1.7-.11.59-.23,1.17-.36,1.72-.13.55-.3,1.05-.53,1.47-.03,0-.04,0-.06.02-.01.01-.03.02-.06.02-.2.05-.71.05-1.51,0-.81-.05-2.07-.06-3.78-.04-.03,0-.05-.01-.08-.04.05-.18.14-.67.26-1.47.13-.81.3-1.85.53-3.14s.5-2.76.81-4.44c.31-1.68.69-3.46,1.11-5.35.43-1.89.89-3.85,1.4-5.9.5-2.04,1.06-4.07,1.66-6.08.18-.02.36-.04.57-.04h.79c.33,0,.75,0,1.27-.02.52-.01,1.19-.06,2.02-.13.08.33.19.83.36,1.49.16.67.34,1.42.53,2.27.19.84.39,1.75.6,2.7.21.96.42,1.88.62,2.76.2.88.39,1.69.57,2.42.18.73.31,1.31.42,1.74ZM106.69,47.73c-.25-2.17-.47-3.85-.66-5.06s-.35-2.03-.49-2.46c-.14-.43-.28-.52-.42-.28-.14.24-.26.72-.38,1.46-.11.73-.24,1.65-.38,2.76-.14,1.11-.3,2.31-.47,3.59.43.03.88.03,1.36.02.48-.01.96-.02,1.44-.02Z" style="fill: #fff;"/>
    <path d="M129.29,58.73c-.5,0-1.08-.03-1.74-.09-.66-.06-1.23-.09-1.74-.09-.83-1.86-1.66-3.67-2.48-5.42-.82-1.75-1.52-3.43-2.1-5.04l-.38-1.13c-.1-.28-.2-.54-.28-.77-.09-.24-.16-.36-.21-.36-.03,0-.06.3-.09.91-.04.6-.07,1.37-.09,2.31-.03.93-.04,1.97-.06,3.1s-.02,2.23-.02,3.29v1.68c0,.54.01,1.03.04,1.46-.28.08-.55.13-.83.15-.28.02-.55.04-.83.04-.6,0-1.22-.04-1.83-.11-.62-.08-1.22-.11-1.79-.11v-2.65c0-2.39-.02-4.67-.06-6.84-.04-2.17-.06-4.43-.06-6.8,0-1.74.02-3.46.08-5.16.05-1.7.14-3.36.26-4.97.25-.05.52-.09.81-.11.29-.02.59-.04.89-.04.15,0,.4,0,.76.02.35.01.71.04,1.06.08.35.04.66.08.93.13.26.05.4.1.4.15.18.45.34.83.49,1.13.15.3.3.59.43.87.14.28.29.59.45.93.16.34.36.77.59,1.3.05.13.16.37.34.72.18.35.38.76.6,1.23.23.47.47.96.72,1.47.25.52.48.98.7,1.4.21.42.4.77.55,1.06.15.29.24.43.26.43.08-.05.14-.3.19-.76.05-.45.08-.89.08-1.32,0-1.01-.02-1.95-.06-2.82s-.06-1.76-.06-2.66c0-.53,0-1.06.02-1.61.01-.54.03-1.13.06-1.76.86-.15,1.76-.23,2.72-.23s1.76.08,2.49.23v12.17c.02,1.06.04,2.13.04,3.21v3.25c0,.73,0,1.44-.02,2.12-.01.68-.02,1.37-.02,2.08,0,.5,0,1.01.02,1.51.01.5.02,1.01.02,1.51v.76c-.05.02-.16.06-.34.11-.18.05-.48.08-.91.08Z" style="fill: #fff;"/>
    <path d="M149.58,40.63h-.04c-.88.15-1.83.25-2.83.28-1.01.04-1.95-.07-2.83-.32.15-.68.01-1.25-.42-1.7-.43-.45-.94-.74-1.55-.87-.6-.13-1.19-.06-1.76.19-.57.25-.9.73-1,1.44-.05.18-.07.35-.06.51.01.16.03.33.06.51.2.6.53,1.01.98,1.21s.94.34,1.47.42c1.33.15,2.58.58,3.72,1.29,1.15.71,2.08,1.6,2.82,2.68.45.58.79,1.2,1.02,1.87.23.67.36,1.35.4,2.06.04.71-.01,1.42-.15,2.14-.14.72-.36,1.4-.66,2.06-.3.78-.71,1.45-1.21,2-.5.55-1.08,1.01-1.72,1.36-.64.35-1.34.61-2.08.77s-1.51.23-2.29.21c-1.11-.03-2.21-.22-3.31-.59-1.1-.36-2.07-.88-2.93-1.53-.86-.65-1.54-1.46-2.04-2.4s-.72-2.02-.64-3.23v-.23c.88-.13,1.85-.16,2.91-.09,1.06.06,2.02.08,2.87.06.05.81.37,1.41.96,1.81.59.4,1.22.6,1.89.59.67-.01,1.25-.23,1.74-.66.49-.43.66-1.08.51-1.96-.08-.6-.3-1.09-.68-1.46-.38-.36-.83-.66-1.34-.89-.52-.23-1.08-.4-1.68-.51-.6-.11-1.17-.22-1.7-.32-.5-.1-.97-.26-1.4-.49-.43-.23-.82-.49-1.17-.79-1.16-1.11-1.91-2.33-2.25-3.67-.34-1.33-.36-2.63-.06-3.89.3-1.26.88-2.41,1.72-3.44.84-1.03,1.87-1.8,3.08-2.31.6-.25,1.27-.42,2-.51.73-.09,1.47-.11,2.21-.08.74.04,1.47.15,2.19.32.72.18,1.38.4,1.98.68,1.21.63,2.14,1.56,2.8,2.8.65,1.23.81,2.8.45,4.69Z" style="fill: #fff;"/>
    <path d="M167.69,55.1c.05.91.08,1.59.08,2.06s-.03.81-.09,1.02c-.06.21-.17.33-.32.34-.15.01-.37.02-.64.02-.28-.02-.64-.02-1.08,0-.44.02-1.18.05-2.23.08-1.05.02-2.48.04-4.31.04s-4.26-.03-7.31-.08v-.68c.08-1.89.14-3.6.19-5.12.05-1.52.08-2.95.09-4.27.01-1.32.02-2.6.02-3.84s-.01-2.49-.04-3.78c-.03-1.29-.05-2.65-.08-4.1-.03-1.45-.05-3.05-.08-4.82.25-.1.64-.18,1.17-.25.53-.06,1.1-.09,1.7-.09s1.2.04,1.78.11c.58.08,1.04.19,1.4.34-.05,1.64-.07,3.32-.06,5.05.01,1.73.03,3.46.06,5.2.02,1.74.04,3.47.06,5.2.01,1.73,0,3.4-.02,5.01v.04c.18-.05.51-.07,1-.06.49.01,1.06.03,1.72.06.66.03,1.35.06,2.1.09.74.04,1.45.07,2.12.09.67.03,1.26.04,1.78.06.52.01.88,0,1.08-.02,0,.28-.01.55-.04.83-.03.25-.04.51-.06.77-.01.26,0,.5.02.7Z" style="fill: #fff;"/>
    <path d="M181.52,45.27l2.83,13.23v.04c-.76.15-1.59.21-2.49.17-.91-.04-1.76-.15-2.57-.32h-.04c-.15-.4-.3-.88-.43-1.44-.14-.55-.28-1.12-.42-1.7-.14-.58-.28-1.13-.43-1.66-.15-.53-.32-.98-.49-1.36-.33-.05-.58-.08-.76-.08h-.47c-.14,0-.29,0-.45.02-.16.01-.38.02-.66.02-.18.4-.32.88-.43,1.42-.11.54-.23,1.11-.34,1.7-.11.59-.23,1.17-.36,1.72-.13.55-.3,1.05-.53,1.47-.03,0-.04,0-.06.02-.01.01-.03.02-.06.02-.2.05-.71.05-1.51,0-.81-.05-2.07-.06-3.78-.04-.03,0-.05-.01-.08-.04.05-.18.14-.67.26-1.47.13-.81.3-1.85.53-3.14s.5-2.76.81-4.44c.31-1.68.69-3.46,1.11-5.35.43-1.89.89-3.85,1.4-5.9.5-2.04,1.06-4.07,1.66-6.08.18-.02.36-.04.57-.04h.79c.33,0,.75,0,1.27-.02.52-.01,1.19-.06,2.02-.13.08.33.19.83.36,1.49.16.67.34,1.42.53,2.27.19.84.39,1.75.6,2.7.21.96.42,1.88.62,2.76.2.88.39,1.69.57,2.42.18.73.31,1.31.42,1.74ZM177.66,47.73c-.25-2.17-.47-3.85-.66-5.06s-.35-2.03-.49-2.46c-.14-.43-.28-.52-.42-.28-.14.24-.26.72-.38,1.46-.11.73-.24,1.65-.38,2.76-.14,1.11-.3,2.31-.47,3.59.43.03.88.03,1.36.02.48-.01.96-.02,1.44-.02Z" style="fill: #fff;"/>
    <path d="M198.82,32.27c.05.83.07,1.79.06,2.87-.01,1.08-.08,2.08-.21,2.99-.48-.1-1.07-.14-1.78-.11-.71.03-1.65.06-2.83.11h-.11s0,.04-.02.06c-.01.01-.02.03-.02.06-.03.13-.04.32-.06.59-.01.26-.02.68-.02,1.25s0,1.31.02,2.23c.01.92.03,2.1.06,3.55.02,1.45.05,3.19.08,5.21.02,2.03.06,4.42.11,7.16v.08c-.45.08-.95.12-1.49.13-.54.01-1.08.02-1.62.02h-1.61c-.53,0-1.02.04-1.47.11-.03-.1-.03-.55,0-1.36.02-.81.04-2.01.06-3.61.01-1.6,0-3.65-.04-6.14-.04-2.49-.13-5.5-.28-9.03l-.04-.04c-.3-.15-.68-.25-1.13-.28-.45-.04-.91-.06-1.36-.08-.45-.01-.87-.02-1.25-.02s-.64-.02-.79-.08c-.05-.1-.09-.35-.13-.76-.04-.4-.06-.89-.08-1.46s-.02-1.18-.02-1.83.02-1.28.08-1.89c0-.02,0-.04-.02-.04-.01,0-.02-.01-.02-.04,2.57-.02,5.22-.04,7.96-.06,2.73-.01,5.4.12,7.99.4Z" style="fill: #fff;"/>
    <path d="M215.75,36.17c.18.38.31.76.4,1.15.09.39.16.79.21,1.19.05.63.08,1.25.09,1.87.01.62,0,1.24-.02,1.87-.08,1.34-.1,2.63-.08,3.89.02,1.26-.01,2.54-.11,3.85l-.11,1.25c-.05.88-.19,1.77-.42,2.66-.23.89-.57,1.71-1.02,2.44-.43.6-.99,1.09-1.68,1.46s-1.43.65-2.21.85c-.71.2-1.42.33-2.14.38-.72.05-1.44.05-2.17,0-.53-.05-1.04-.12-1.53-.21s-.96-.23-1.4-.43c-.44-.2-.84-.46-1.19-.77-.35-.31-.64-.72-.87-1.23-.35-.63-.59-1.3-.7-2.02-.11-.72-.18-1.44-.21-2.17-.08-1.97-.16-3.94-.25-5.91-.09-1.98-.07-3.96.06-5.95.02-1.13.17-2.27.43-3.42.26-1.15.79-2.16,1.57-3.04.25-.25.54-.48.87-.68.83-.4,1.73-.7,2.7-.89.97-.19,1.94-.26,2.91-.21.97.05,1.91.22,2.83.51.92.29,1.74.71,2.48,1.27.73.66,1.25,1.42,1.55,2.31ZM211.71,45.39l-.08-2.57s-.02-.28-.06-.77c-.04-.49-.07-.95-.09-1.38-.05-.71-.25-1.35-.59-1.93-.34-.58-.8-1.01-1.38-1.28-.5-.2-1.02-.24-1.55-.11-.53.13-1,.34-1.4.64-.88.68-1.47,1.55-1.78,2.61-.2.96-.32,1.97-.36,3.02-.04,1.06-.03,2.12.02,3.17.13.88.21,1.78.26,2.7.05.92.2,1.79.45,2.63.25.5.62.89,1.1,1.17.48.28,1,.43,1.55.47.55.04,1.11-.04,1.66-.23.55-.19,1.02-.5,1.4-.93.23-.3.39-.55.49-.74.1-.19.16-.4.19-.62.02-.23.03-.5.02-.81-.01-.31,0-.74.06-1.27.02-.5.04-.94.06-1.32.01-.38.02-.59.02-.64v-1.81Z" style="fill: #fff;"/>
    <path d="M236.99,58.42h.04c-.88,0-1.86.03-2.95.09-1.08.06-2.19.06-3.33-.02h-.04c-.25-.58-.57-1.27-.94-2.08-.38-.81-.79-1.65-1.25-2.53-.45-.88-.94-1.75-1.47-2.61-.53-.86-1.06-1.61-1.59-2.27l-.08-.11c-.08.58-.11,1.29-.11,2.14s.02,1.71.06,2.61c.04.89.08,1.75.13,2.55.05.81.09,1.45.11,1.93-.43.18-.99.29-1.68.34-.69.05-1.38.08-2.06.09-.68.01-1.29,0-1.83-.02-.54-.02-.88-.02-1,0,.05,0,.09-.35.11-1.04.02-.69.04-1.61.04-2.74v-3.91c0-1.47,0-3-.02-4.57-.01-1.57-.04-3.14-.08-4.69-.04-1.55-.07-2.97-.09-4.27-.03-1.3-.06-2.41-.09-3.33-.04-.92-.08-1.54-.13-1.87,1.41-.2,2.96-.39,4.65-.57,1.69-.18,3.45-.16,5.29.04,1.49.08,2.82.5,4.01,1.29,1.18.78,2.1,1.75,2.76,2.91.65,1.16,1,2.44,1.04,3.84.04,1.4-.33,2.75-1.11,4.06-.48.91-1.11,1.66-1.91,2.27-.79.6-1.79.94-3,1.02h-.19v.04c.53.93,1.11,1.86,1.74,2.78.63.92,1.25,1.85,1.85,2.78s1.18,1.88,1.74,2.85c.55.97,1.02,1.97,1.4,3ZM224.26,37.41c.02.33.04.7.06,1.11.01.42.02.84.02,1.27s0,.84.02,1.25c.01.4.04.74.09,1.02h.04c.58.05,1.21.09,1.89.11.68.03,1.32-.01,1.93-.11.48-.1.85-.35,1.11-.74s.42-.82.47-1.29c.05-.47,0-.93-.15-1.4s-.4-.84-.76-1.12c-.55-.5-1.26-.74-2.12-.7-.86.04-1.73.23-2.61.59Z" style="fill: #fff;"/>
  </g>
</svg>